<svg fill="none" xmlns="http://www.w3.org/2000/svg" viewBox="0 0 44 32" id="email" width="22" height="16">
    <g clip-path="url(#a)">
        <path d="m4 1.5 18 12.7L40 1.5a1.5 1.5 0 0 1 1.5 0A6 6 0 0 0 38 0H6a6 6 0 0 0-3.6 1.3 1.5 1.5 0 0 1 1.5.2Z"
            fill="#75CEDE" />
        <path
            d="m41.7 1.5.3.2a1.5 1.5 0 0 1-.3 2L22.8 17.3a1.5 1.5 0 0 1-1.6 0L2.3 3.7a1.5 1.5 0 0 1-.3-2l.3-.2A6 6 0 0 0 .2 5.9v20.2a6 6 0 0 0 6 5.9h31.7a6 6 0 0 0 6-6V6a6 6 0 0 0-2.2-4.5ZM18.7 20 4 30.6c-.2.2-.5.3-.8.3a1.5 1.5 0 0 1-.9-2.6l14.8-10.6a1.5 1.5 0 0 1 1.7 2.4ZM42 30.3a1.5 1.5 0 0 1-1.1.6l-.9-.3-14.8-10.5a1.5 1.5 0 1 1 1.7-2.4l14.8 10.6a1.5 1.5 0 0 1 .3 2Z"
            fill="#00A6BC" />
    </g>
    <defs>
        <clipPath id="a">
            <path fill="#fff" transform="translate(.2)" d="M0 0H43.6V32H0z" />
        </clipPath>
    </defs>
</svg>