<svg fill="none" xmlns="http://www.w3.org/2000/svg" viewBox="0 0 36 32" id="gitlab" width="18" height="16">
    <g clip-path="url(#a)">
        <path
            d="m35.2 18.2-2-5.8L29.4 1a.7.7 0 0 0-.6-.4.7.7 0 0 0-.6.4l-3.9 11.5H11.7L7.8 1a.7.7 0 0 0-.6-.4.7.7 0 0 0-.6.4L2.8 12.4l-2 5.8a1.3 1.3 0 0 0 .5 1.5L18 31.5l16.7-11.8a1.3 1.3 0 0 0 .5-1.5Z"
            fill="#FC6D26" />
        <path d="m18 31.5 6.3-19H11.7l6.3 19Z" fill="#E24329" />
        <path d="m18 31.5-6.3-19h-9l15.3 19Z" fill="#FC6D26" />
        <path d="m2.8 12.4-2 5.8a1.3 1.3 0 0 0 .5 1.5L18 31.5l-15.2-19Z" fill="#FCA326" />
        <path d="M2.8 12.4h8.9L7.8 1a.7.7 0 0 0-.6-.4.7.7 0 0 0-.6.4L2.8 12.4Z" fill="#E24329" />
        <path d="m18 31.5 6.3-19h9L18 31.4Z" fill="#FC6D26" />
        <path d="m33.2 12.4 2 5.8a1.3 1.3 0 0 1-.5 1.5L18 31.5l15.2-19Z" fill="#FCA326" />
        <path d="M33.2 12.4h-8.8L28.2 1a.7.7 0 0 1 .6-.4c.3 0 .5.2.6.4l3.8 11.5Z" fill="#E24329" />
    </g>
    <defs>
        <clipPath id="a">
            <path fill="#fff" transform="translate(.8)" d="M0 0H34.5V32H0z" />
        </clipPath>
    </defs>
</svg>