<svg viewBox="0 0 134 134" xmlns="http://www.w3.org/2000/svg" xml:space="preserve" fill-rule="evenodd"
    clip-rule="evenodd" stroke-linejoin="round" stroke-miterlimit="2" id="linkedin" width="16" height="16">
    <clipPath id="a">
        <path d="M0 0H133.3V133.3H0z" />
    </clipPath>
    <g clip-path="url(#a)" fill-rule="nonzero">
        <path fill="#fff" d="M10.3 14.6H122.1V119.4H10.3z" />
        <path
            d="M113.8 113.8h-20V82.5c0-7 0-16.7-10-16.7-10.5 0-12.1 8.4-12.1 16.7v31.3H52V50h18.7v8.3c4-6.6 11.5-10.5 19.2-10 20 0 23.8 13.4 23.8 30.5v35ZM29.2 41.3C23 41 18.2 36 17.9 30c0-6.7 5-11.7 11.3-11.7 6.2 0 11.6 5 11.6 11.7 0 6.3-5.4 11.3-11.6 11.3Zm10.4 72.5h-20V50h20v63.8ZM123.3 0H9.6A9.6 9.6 0 0 0 0 9.6v114.2a9.6 9.6 0 0 0 10 9.5h113.3a10 10 0 0 0 10-9.5V9.6a9.6 9.6 0 0 0-10-9.6Z"
            fill="#0a66c2" />
    </g>
</svg>