<svg fill="none" xmlns="http://www.w3.org/2000/svg" viewBox="0 0 16 16" id="css">
    <path d="M3 13.6 1.8 1h12.4L13 13.6 8 15l-5-1.4Z" fill="#1572B6" />
    <path d="m8 14 4-1.2L13 2H8v12Z" fill="#33A9DC" />
    <path d="M8 6.6h2l.2-1.6H8V3.5H12v.4L11.4 8H8V6.6Z" fill="#fff" />
    <path d="m8 10.6-1.7-.5L6.2 9H4.6l.2 2.4 3.2 1v-1.7Z" fill="#EBEBEB" />
    <path d="m10 8-.3 2.1-1.7.5v1.6l3.2-.9v-.2l.3-3H9.9Z" fill="#fff" />
    <path d="M8 3.5V5H4.3v-.3l-.1-.8v-.4H8ZM8 6.6v1.5H6.3v-.3L6.2 7v-.4H8Z" fill="#EBEBEB" />
</svg>