<svg fill="none" xmlns="http://www.w3.org/2000/svg" viewBox="0 0 16 16" id="db">
    <g clip-path="url(#a)">
        <path
            d="M7 16c-1.4-.1-3-.5-3.8-1-.6-.3-1-.6-1.1-1V2C2.4 1.3 3.4.7 4.9.3A14.7 14.7 0 0 1 9.4.1c1.6.1 3 .6 3.7 1.1.4.2.7.6.8.8l.1.2v11.7l-.1.2-.3.3c-.7.8-2.1 1.3-4 1.5H7Zm2.8-5a8.6 8.6 0 0 0-1-1h.1l.3-.3c.3-.3.5-.7.5-1.2s-.2-.9-.5-1.2C9 7 8.6 7 8.1 7c-.8 0-1.4.4-1.6 1.2v1c.2.6.6 1 1.2 1l.4.3.3.4.3.2h1.1Zm-2-1.7L7.5 9v-.9c.2-.3.3-.4.5-.4.3 0 .5.2.6.5.1.5 0 1-.3 1.1h-.5Zm-2.6.9c.7-.1 1-.5 1-1s-.2-.7-.8-1l-.5-.4.2-.2.8.1.1.1V7H4.5c-.4.2-.6.5-.6 1 0 .4.2.6.8.9.3.1.4.2.4.4s-.4.3-.9 0l-.3-.1v.9h1.3Zm7-.4v-.4h-1.1V7h-1v3.2h2.1v-.3ZM8.8 3.4c1 0 1.7-.2 2.3-.4.7-.2 1-.4 1.1-.7V2c-.2-.5-1.3-1-3-1C8.4.7 7 .8 6.4 1c-1.1.1-2 .4-2.4.7-.8.6 0 1.3 2 1.6.8.2 2 .2 2.8.1Z"
            fill="#00BCF2" />
    </g>
    <defs>
        <clipPath id="a">
            <path fill="#fff" d="M0 0H16V16H0z" />
        </clipPath>
    </defs>
</svg>