<svg fill="none" xmlns="http://www.w3.org/2000/svg" viewBox="0 0 16 16" id="directus">
    <path
        d="M12.8 9.3h-.2l-.1-.2v-1c.1-1.2.9-.8 1.6-1 .4 0 .9-.3 1-.9a9.1 9.1 0 0 0-8.2-3c.3.7.8 1.1 1.4 1.4 0 0-.6 0-1.1-.3l-.6.2a3.4 3.4 0 0 0 4.4.3l-.2.9c-.4 1.6-1.3 1.5-2.4 1-2.3-.8-3.6 0-4.7-1.6a1 1 0 0 0 0 1.9c.1-.3.2-.3.5-.3-.5.2-.5.5-.7 1.1-.3.8-.2 1.6-1.3 1.8-.6 0-.6.4-.8 1-.3.8-.7 1.2-1.4 2 .3.3.6.3 1 .2.6-.3 1-1.1 1.5-1.7.5-.6 1.8-.3 2.7-.9.7-.4 1-1 .6-1.8.3.3.4.6.5 1 1 0 2.5 1.2 3.8 1.5l-.3-.6a2 2 0 0 1-.1-1c0 .8.8 1.7 2 1.8l1-.1c.4-.2.8-.3 1.2-.2.4 0 .7.2.9.5.3.4 1 .5 1.2 0-.7-1.7-2.4-1.8-3.2-2Z"
        fill="#000" />
</svg>