<svg fill="none" xmlns="http://www.w3.org/2000/svg" viewBox="0 0 16 16" id="github">
    <path
        d="M14.8 5.2v-.3c0-1.2-.1-2.4-.6-3.5 0-.1 0-.2-.2-.2l-1 .3c-1 .4-1.8.9-2.6 1.4H10c-1.4-.2-2.7-.2-4 0h-.5c-1-.7-1.9-1.3-3-1.6-1-.2-.7-.2-1 .6-.3 1-.4 2-.4 3v.3c-.4.5-.8 1-1 1.6a6.9 6.9 0 0 0 0 3.4c.4 2.3 2 3.9 4.2 4.3l3.5.3c1.2 0 2.4 0 3.5-.3a5 5 0 0 0 4-3.2c.3-.6.5-1.3.5-2a5 5 0 0 0-1-4.1Zm-1 6.3c-.2 1-.8 1.6-1.7 1.9-.9.3-1.8.5-2.8.5H8c-1.2 0-2.5 0-3.6-.4-1.5-.4-2.2-1.3-2.2-2.8 0-.6 0-1.1.3-1.6.5-1 1.4-1.4 2.4-1.4l1.8.1h5.2c1.1.2 2 1.3 2 2.6l-.1 1Z"
        fill="#758CA3" />
    <path
        d="M4.6 9.4c-.4.3-.5.8-.5 1.2 0 .5.2 1 .5 1.3.4.4 1 .4 1.3 0a2 2 0 0 0 0-2.5.9.9 0 0 0-1.3 0ZM10.1 9.3c-.6.7-.6 2 0 2.7.4.3 1 .3 1.3 0 .4-.4.5-.9.5-1.4 0-.4-.1-.9-.5-1.2a.9.9 0 0 0-1.3 0Z"
        fill="#758CA3" />
</svg>