<svg fill="none" xmlns="http://www.w3.org/2000/svg" viewBox="0 0 16 16" id="gitlab">
    <path
        d="m15 8.9-.8-2.4L12.6 2a.3.3 0 0 0-.2-.2.3.3 0 0 0-.3.2l-1.5 4.6H5.4L4 2a.3.3 0 0 0-.3-.2.3.3 0 0 0-.2.2L1.8 6.5 1 9a.5.5 0 0 0 .2.6L8 14.3l6.8-4.8a.5.5 0 0 0 .2-.6Z"
        fill="#FC6D26" />
    <path d="m8 14.3 2.6-7.8H5.4L8 14.3Z" fill="#E24329" />
    <path d="M8 14.3 5.4 6.5H1.8L8 14.3Z" fill="#FC6D26" />
    <path d="M1.8 6.5 1 9a.5.5 0 0 0 .2.6L8 14.3 1.8 6.6Z" fill="#FCA326" />
    <path d="M1.8 6.5h3.6L4 2a.3.3 0 0 0-.3-.2.3.3 0 0 0-.2.2L1.8 6.5Z" fill="#E24329" />
    <path d="m8 14.3 2.6-7.8h3.6L8 14.3Z" fill="#FC6D26" />
    <path d="M14.2 6.5 15 9a.5.5 0 0 1-.2.6L8 14.3l6.2-7.8Z" fill="#FCA326" />
    <path d="M14.2 6.5h-3.6L12 2a.3.3 0 0 1 .3-.2c.1 0 .2 0 .2.2l1.6 4.6Z" fill="#E24329" />
</svg>