<svg fill="none" xmlns="http://www.w3.org/2000/svg" viewBox="0 0 16 16" id="java">
    <path d="M12 12.6h-.1.1v.2-.2Zm.3 0-.1.2v-.2.2H12v-.2.1l.1-.1h.1v.2-.2Z" fill="#E76F00" />
    <path
        d="M6.5 8.5s-.4.2.3.3h2.3l.6.2C7.6 10 5 9 6.5 8.5Zm-.2-1.2s-.5.3.2.4c1 .1 1.7.1 3-.1l.4.2c-2.6.8-5.5.1-3.6-.5Z"
        fill="#5382A1" />
    <path d="M8.5 5.2c.5.7-.1 1.2-.1 1.2s1.3-.7.7-1.6c-.6-.8-1-1.2 1.4-2.6 0 0-3.8 1-2 3Z" fill="#E76F00" />
    <path
        d="M11.3 9.4s.3.2-.3.4c-1.2.4-5.2.5-6.3 0-.3-.1.4-.4.6-.4h.4c-.4-.4-2.8.5-1.2.8 4.4.7 8-.3 6.8-.8ZM6.7 6s-2 .5-.7.7h2.7l1.6-.3-.5.3c-2 .5-6 .3-4.8-.3C6 6 6.7 6 6.7 6Zm3.6 2c2-1 1.1-2 .5-2l-.3.1h.2c1.3-.6 2.3 1.3-.4 2Z"
        fill="#5382A1" />
    <path d="M9 0s1.2 1.1-1 2.9C6.2 4.3 7.6 5 8 6 7 5 6.2 4.3 6.7 3.5 7.5 2.4 9.5 1.8 9.1 0Z" fill="#E76F00" />
    <path d="M7 11c2 0 5-.1 5-1 0 0-.1.3-1.6.6-1.7.3-3.8.3-5 0 0 0 .2.3 1.5.3Z" fill="#5382A1" />
    <path
        d="m6.6 14.5-.5.3c-.3 0-.4-.2-.4-.4 0-.3.1-.5.7-.5h.2v.6Zm.5.6v-1.8c0-.5-.2-.8-.9-.8l-1 .2.2.4.7-.2c.4 0 .5.2.5.5v.2h-.2c-.8 0-1.2.3-1.2.8s.2.7.7.7c.3 0 .6 0 .8-.3v.3h.4ZM9 15h-.7l-.8-2.5H8l.5 1.5v.5l.6-2h.5c-.1.8-.4 1.7-.7 2.5Zm2.4-.6-.5.3c-.3 0-.4-.2-.4-.4 0-.3.1-.5.7-.5h.2v.6Zm.5.6v-1.8c0-.5-.2-.8-.9-.8l-1 .2.2.4.7-.2c.4 0 .5.2.5.5v.2h-.2c-.8 0-1.2.3-1.2.8s.2.7.7.7c.3 0 .6 0 .8-.3v.3h.4Zm-7.2.4L4 16l-.3-.3.4-.4.1-.7v-3h.6v3c0 .5 0 .7-.2 1Z"
        fill="#E76F00" />
</svg>