<svg fill="none" xmlns="http://www.w3.org/2000/svg" viewBox="0 0 16 16" id="js">
    <g clip-path="url(#a)">
        <path d="M13.6 0H2.4C1.1 0 0 1 0 2.4v11.2C0 14.9 1 16 2.4 16h11.2c1.3 0 2.4-1 2.4-2.4V2.4C16 1.1 15 0 13.6 0Z"
            fill="#F7DF1E" />
        <path
            d="M10.1 11.6c.3.5.8.9 1.5.9.6 0 1-.3 1-.8s-.4-.7-1-1l-.4-.1c-1.1-.5-1.9-1-1.9-2.3 0-1.1.9-2 2.2-2 1 0 1.7.4 2.2 1.2l-1.2.8c-.3-.5-.5-.7-1-.7-.4 0-.7.3-.7.7 0 .4.3.6 1 .9l.3.1c1.3.6 2 1.1 2 2.4 0 1.4-1 2.1-2.5 2.1-1.4 0-2.3-.6-2.7-1.5l1.2-.7Zm-5.3 0c.3.5.5.9 1 .9s.8-.2.8-1V6.3H8v5.2c0 1.5-1 2.2-2.3 2.2-1.2 0-1.9-.6-2.2-1.4l1.2-.6Z"
            fill="#000" />
    </g>
    <defs>
        <clipPath id="a">
            <path fill="#fff" d="M0 0H16V16H0z" />
        </clipPath>
    </defs>
</svg>