<svg fill="none" xmlns="http://www.w3.org/2000/svg" viewBox="0 0 16 16" id="maven">
    <path d="m3 1.3-.2 1.3.7.3a9 9 0 0 1 0-1.3V3l1.1-1a1.5 1.5 0 0 0-.8-.8s-.6-.3-.8.2Z" fill="url(#a)" />
    <path d="M5.5 6.7Z" fill="#BE202E" />
    <path opacity=".3" d="M5.5 6.7Z" fill="#BE202E" />
    <path d="M5.2 6.2V6Z" fill="#BE202E" />
    <path opacity=".3" d="M5.2 6.2V6Z" fill="#BE202E" />
    <path d="M3.7 5a29.7 29.7 0 0 1-.2-1.4v-.7l-.7-.3v.1a16.2 16.2 0 0 0 0 2.5l1 .5-.1-.7Z" fill="url(#b)" />
    <path
        d="m5.1 10.7.2.5v.1l.1.5.6.1a.8.8 0 0 0-.5-.2 1.7 1.7 0 0 0 .9-1.5V10a.7.7 0 0 1-.4.6l.3-1.2V9a1.5 1.5 0 0 1-1 1.2l-.2.3Z"
        fill="url(#c)" />
    <path
        d="M4.7 9.9c0-.3 0-.5-.2-.7a44 44 0 0 1-.4-2l-.2-.8v-.2l-.1-.5-1-.5.1.7a23.7 23.7 0 0 0 .2 1.3A13.7 13.7 0 0 0 3.5 9l.2.4.3.7 1 .5-.2-.6V10Z"
        fill="url(#d)" />
    <path
        d="m4 10.1.4.8a2 2 0 0 0-.7 0c.4.1.9.3 1.2.7l-.6.3.6-.1c-.2.2-.3.5-.3.7 0-.2.3-.5.6-.6a69.7 69.7 0 0 0 0-.5v-.1l-.2-.6v-.1L4 10Z"
        fill="url(#e)" />
    <path
        d="M3.9 5.7v.4l.1.3v.2l.2.5.1.7.2.7.2.7.2.7a72.6 72.6 0 0 0 .2.7l.3-.3c.3-.4.6-1 .6-1.5v-.9a6 6 0 0 0-.3-1.5l-.2.3v.1h-.1c.2-.3.3-.8.2-1.2l-.3.5h-.1a1.8 1.8 0 0 0 .2-.5v-.4a5 5 0 0 0-.1-.6v-.2h-.1l-.4.5.3-.3-.3.3-.9.8Z"
        fill="url(#f)" />
    <path d="M3.5 3a21.8 21.8 0 0 0 .3 2l.1.7 1-.8L5 4v-.3a7.2 7.2 0 0 0-.3-1.6v-.3L3.4 3Z" fill="url(#g)" />
    <path d="M5.4 6.8Z" fill="#BE202E" />
    <path opacity=".3" d="M5.4 6.8Z" fill="#BE202E" />
    <path d="M5.4 6.8Z" fill="url(#h)" />
    <path d="M5.2 6.2Z" fill="#BE202E" />
    <path opacity=".3" d="M5.2 6.2Z" fill="#BE202E" />
    <path d="M5.2 6.2Z" fill="url(#i)" />
    <path d="m12.3 1.4-1.2 1 .3.8 1-1a9 9 0 0 0-1 1h1.7A1.7 1.7 0 0 0 13 2s-.3-.7-.8-.5Z" fill="url(#j)" />
    <path d="M10 7.8h-.2.2Z" fill="#BE202E" />
    <path opacity=".3" d="M10 7.8h-.2.2Z" fill="#BE202E" />
    <path d="M10.2 7.2h.1-.1Z" fill="#BE202E" />
    <path opacity=".3" d="M10.2 7.2h.1-.1Z" fill="#BE202E" />
    <path d="M9.9 5a39.7 39.7 0 0 1 1.5-1.8l-.3-.8H11a17.6 17.6 0 0 0-2 2.1l.4 1.2.5-.7Z" fill="url(#k)" />
    <path
        d="m6.5 10.7-.3.6-.3.6.4.5-.2-.6c.7.1 1.4 0 1.9-.5v-.1a.8.8 0 0 1-.7.1c.5 0 .9-.3 1.2-.7l.2-.3a1.7 1.7 0 0 1-1.7.3h-.4v.1Z"
        fill="url(#l)" />
    <path
        d="m6.9 9.8.4-.8.4-.6.4-.7.4-.7.5-.7.1-.2.3-.4L9 4.5l-.5.6a23 23 0 0 0-.8 1.2 17.8 17.8 0 0 0-1.1 1.8l-.2.4c0 .3-.2.5-.3.8l.4 1.2.3-.6v-.2Z"
        fill="url(#m)" />
    <path
        d="m6 9.3-.2 1c-.2-.2-.3-.4-.6-.5.3.4.4 1 .4 1.4-.2 0-.4 0-.6-.2l.5.5c-.3 0-.6 0-.9.3.4-.2.7-.2 1 0a75.6 75.6 0 0 0-1.3 3L6 11.4v-.2l.4-.6v-.1l-.3-1.2Z"
        fill="url(#n)" />
    <path
        d="m9.5 5.8-.2.3-.3.3v.2l-.4.5a41.2 41.2 0 0 0-.8 1.4l-.4.7-.4.6a69.8 69.8 0 0 0-.4.8H7c.7 0 1.3-.3 1.8-.7l.7-.7a6.7 6.7 0 0 0 .9-1.5l-.5.1h-.1a2 2 0 0 0 1.1-.8l-.6.1h-.1a2 2 0 0 0 .5-.2h.2v-.1l.2-.2.1-.1a5 5 0 0 0 .3-.5l.1-.2v-.1a2.1 2.1 0 0 1-.7.1H9.5Z"
        fill="url(#o)" />
    <path d="M11.4 3.2a21 21 0 0 0-1 1.3L10 5l-.5.7H11c.3 0 .6-.2.8-.5.1 0 .2 0 .2-.2a8.1 8.1 0 0 0 1.2-1.8h-1.7Z"
        fill="url(#p)" />
    <path d="M9.9 7.8h-.1Z" fill="#BE202E" />
    <path opacity=".3" d="M9.9 7.8h-.1Z" fill="#BE202E" />
    <path d="M9.9 7.8h-.1Z" fill="url(#q)" />
    <defs>
        <linearGradient id="a" x1="2.7" y1="1.1" x2="4.5" y2="-1.1" gradientUnits="userSpaceOnUse">
            <stop stop-color="#F69923" />
            <stop offset=".3" stop-color="#F79A23" />
            <stop offset=".8" stop-color="#E97826" />
        </linearGradient>
        <linearGradient id="b" x1="5.1" y1="14.5" x2="2.6" y2="1.7" gradientUnits="userSpaceOnUse">
            <stop offset=".3" stop-color="#9E2064" />
            <stop offset=".6" stop-color="#C92037" />
            <stop offset=".8" stop-color="#CD2335" />
            <stop offset="1" stop-color="#E97826" />
        </linearGradient>
        <linearGradient id="c" x1="6.1" y1="12.7" x2="4.6" y2="5" gradientUnits="userSpaceOnUse">
            <stop stop-color="#282662" />
            <stop offset=".1" stop-color="#662E8D" />
            <stop offset=".8" stop-color="#9F2064" />
            <stop offset=".9" stop-color="#CD2032" />
        </linearGradient>
        <linearGradient id="d" x1="4.8" y1="13.8" x2="2.3" y2="1" gradientUnits="userSpaceOnUse">
            <stop offset=".3" stop-color="#9E2064" />
            <stop offset=".6" stop-color="#C92037" />
            <stop offset=".8" stop-color="#CD2335" />
            <stop offset="1" stop-color="#E97826" />
        </linearGradient>
        <linearGradient id="e" x1="4.8" y1="12.8" x2="3.5" y2="6.1" gradientUnits="userSpaceOnUse">
            <stop stop-color="#282662" />
            <stop offset=".1" stop-color="#662E8D" />
            <stop offset=".8" stop-color="#9F2064" />
            <stop offset=".9" stop-color="#CD2032" />
        </linearGradient>
        <linearGradient id="f" x1="6.2" y1="13.5" x2="3.6" y2=".7" gradientUnits="userSpaceOnUse">
            <stop offset=".3" stop-color="#9E2064" />
            <stop offset=".6" stop-color="#C92037" />
            <stop offset=".8" stop-color="#CD2335" />
            <stop offset="1" stop-color="#E97826" />
        </linearGradient>
        <linearGradient id="g" x1="6.3" y1="14.3" x2="3.7" y2="1.5" gradientUnits="userSpaceOnUse">
            <stop offset=".3" stop-color="#9E2064" />
            <stop offset=".6" stop-color="#C92037" />
            <stop offset=".8" stop-color="#CD2335" />
            <stop offset="1" stop-color="#E97826" />
        </linearGradient>
        <linearGradient id="h" x1="6.6" y1="13.4" x2="4" y2=".6" gradientUnits="userSpaceOnUse">
            <stop offset=".3" stop-color="#9E2064" />
            <stop offset=".6" stop-color="#C92037" />
            <stop offset=".8" stop-color="#CD2335" />
            <stop offset="1" stop-color="#E97826" />
        </linearGradient>
        <linearGradient id="i" x1="6.5" y1="13.4" x2="4" y2=".6" gradientUnits="userSpaceOnUse">
            <stop offset=".3" stop-color="#9E2064" />
            <stop offset=".6" stop-color="#C92037" />
            <stop offset=".8" stop-color="#CD2335" />
            <stop offset="1" stop-color="#E97826" />
        </linearGradient>
        <linearGradient id="j" x1="10.4" y1="2" x2="13.6" y2="1.6" gradientUnits="userSpaceOnUse">
            <stop stop-color="#F69923" />
            <stop offset=".3" stop-color="#F79A23" />
            <stop offset=".8" stop-color="#E97826" />
        </linearGradient>
        <linearGradient id="k" x1="1.7" y1="14.7" x2="9.9" y2="2.3" gradientUnits="userSpaceOnUse">
            <stop offset=".3" stop-color="#9E2064" />
            <stop offset=".6" stop-color="#C92037" />
            <stop offset=".8" stop-color="#CD2335" />
            <stop offset="1" stop-color="#E97826" />
        </linearGradient>
        <linearGradient id="l" x1="3.9" y1="14" x2="8.8" y2="6.6" gradientUnits="userSpaceOnUse">
            <stop stop-color="#282662" />
            <stop offset=".1" stop-color="#662E8D" />
            <stop offset=".8" stop-color="#9F2064" />
            <stop offset=".9" stop-color="#CD2032" />
        </linearGradient>
        <linearGradient id="m" x1="2.1" y1="13.9" x2="10.2" y2="1.5" gradientUnits="userSpaceOnUse">
            <stop offset=".3" stop-color="#9E2064" />
            <stop offset=".6" stop-color="#C92037" />
            <stop offset=".8" stop-color="#CD2335" />
            <stop offset="1" stop-color="#E97826" />
        </linearGradient>
        <linearGradient id="n" x1="2.8" y1="13.1" x2="7.1" y2="6.6" gradientUnits="userSpaceOnUse">
            <stop stop-color="#282662" />
            <stop offset=".1" stop-color="#662E8D" />
            <stop offset=".8" stop-color="#9F2064" />
            <stop offset=".9" stop-color="#CD2032" />
        </linearGradient>
        <linearGradient id="o" x1="3.3" y1="14.7" x2="11.5" y2="2.4" gradientUnits="userSpaceOnUse">
            <stop offset=".3" stop-color="#9E2064" />
            <stop offset=".6" stop-color="#C92037" />
            <stop offset=".8" stop-color="#CD2335" />
            <stop offset="1" stop-color="#E97826" />
        </linearGradient>
        <linearGradient id="p" x1="2.8" y1="15.5" x2="10.9" y2="3.1" gradientUnits="userSpaceOnUse">
            <stop offset=".3" stop-color="#9E2064" />
            <stop offset=".6" stop-color="#C92037" />
            <stop offset=".8" stop-color="#CD2335" />
            <stop offset="1" stop-color="#E97826" />
        </linearGradient>
        <linearGradient id="q" x1="3.7" y1="15" x2="11.9" y2="2.6" gradientUnits="userSpaceOnUse">
            <stop offset=".3" stop-color="#9E2064" />
            <stop offset=".6" stop-color="#C92037" />
            <stop offset=".8" stop-color="#CD2335" />
            <stop offset="1" stop-color="#E97826" />
        </linearGradient>
    </defs>
</svg>