<svg fill="none" xmlns="http://www.w3.org/2000/svg" viewBox="0 0 16 16" id="react">
    <path d="M9.3 8a1.3 1.3 0 0 0-2.7 0c0 .7.7 1.3 1.4 1.3S9.3 8.7 9.3 8Z" fill="#53C1DE" />
    <path fill-rule="evenodd" clip-rule="evenodd"
        d="M12.4 5.6c.2-1.1.6-3.2-.7-3.9C10.5 1 9 2.3 8 3.1c-.8-.8-2.5-2-3.8-1.4-1.2.7-.8 2.7-.5 3.9C2.5 5.9.5 6.6.5 8s2 2.1 3.1 2.5c-.2 1-.6 3.1.6 3.8 1.3.7 3-.6 3.8-1.4.9.8 2.5 2.1 3.7 1.4 1.3-.7 1-2.7.7-3.9 1.1-.3 3.1-1 3.1-2.4s-2-2.1-3.1-2.4Zm-.2 4.2c-.2-.5-.4-1.2-.8-1.8l.8-1.8c.8.2 2.7.8 2.7 1.8S13 9.6 12.2 9.8Zm-.8 4c-1 .5-2.3-.8-3-1.4.5-.4 1-1 1.3-1.5.8 0 1.4-.2 2-.3.3.8.7 2.6-.3 3.2Zm-6.8 0c-1-.6-.5-2.4-.3-3.2l2 .3 1.3 1.5c-.6.6-2.1 1.9-3 1.4ZM1 8c0-1 1.9-1.6 2.7-1.8L4.6 8l-.8 1.9c-.8-.3-2.7-.9-2.7-2Zm3.5-5.7c.9-.6 2.3.7 3 1.3-.5.4-1 1-1.3 1.5-.7 0-1.4.2-2 .3-.3-.9-.7-2.6.3-3.1Zm5.6 3.5 1.4.2-.5 1.3-1-1.5ZM8 4 9 5H7l1-1ZM5 7.3c-.3-.5-.4-.9-.5-1.3l1.3-.2L5 7.3Zm.8 3L4.4 10 5 8.7l1 1.5ZM8 12a14 14 0 0 1-.9-1H9L8 12Zm3-3.3.6 1.3-1.4.2.9-1.5Zm-1.6 1.6H6.6c-.5-.7-1-1.5-1.3-2.3l1.3-2.3h2.8c.5.7 1 1.5 1.3 2.3l-1.3 2.3Zm2-8c1 .5.5 2.3.3 3.1l-2-.3-1.2-1.5c.6-.6 2-1.9 3-1.4Z"
        fill="#53C1DE" />
</svg>