<svg fill="none" xmlns="http://www.w3.org/2000/svg" viewBox="0 0 16 16" id="spring">
    <g clip-path="url(#a)">
        <path fill-rule="evenodd" clip-rule="evenodd"
            d="M2.73 14a.68.68 0 1 0-.04-.04l-.13-.12A7.97 7.97 0 1 1 13.7 2.42c.33-.45.61-.95.85-1.51 1.02 3.06 1.61 5.63 1.4 7.66a8 8 0 0 1-13.1 5.53l-.13-.1Zm11.8-2.5c2-2.66.88-6.98-.05-9.73-.83 1.72-2.87 3.04-4.63 3.46-1.65.4-3.11.07-4.64.66-3.49 1.34-3.43 5.5-1.51 6.43l.11.06s2.82-.56 4.38-1.14c2.28-.84 4.79-2.92 5.61-5.33-.44 2.51-2.6 4.92-4.75 6.03-1.15.6-2.05.72-3.94 1.38-.24.08-.42.16-.42.16.48-.08.96-.1.96-.1 2.7-.14 6.9.75 8.87-1.87Z"
            fill="#70AD51" />
    </g>
    <defs>
        <clipPath id="a">
            <path fill="#fff" d="M0 0H16V16H0z" />
        </clipPath>
    </defs>
</svg>