<svg fill="none" xmlns="http://www.w3.org/2000/svg" viewBox="0 0 16 16" id="svelte">
    <path
        d="M13.8 2.11A4.88 4.88 0 0 0 7.27.71L3.55 3.08a4.27 4.27 0 0 0-1.93 2.86c-.18.99-.03 2 .44 2.9a4.28 4.28 0 0 0-.64 1.59c-.21 1.2.07 2.44.78 3.44a4.88 4.88 0 0 0 6.53 1.4l3.72-2.37a4.27 4.27 0 0 0 1.93-2.86c.18-.99.03-2-.44-2.89.32-.48.54-1.02.64-1.6a4.55 4.55 0 0 0-.78-3.44"
        fill="#FF3E00" />
    <path
        d="M6.9 14.07a2.96 2.96 0 0 1-3.17-1.18 2.74 2.74 0 0 1-.38-2.41l.07-.22.2.14c.43.33.92.57 1.45.73l.14.04-.02.14c-.01.2.04.4.15.55.22.31.6.45.96.36a.82.82 0 0 0 .23-.1l3.72-2.38c.19-.11.31-.3.35-.51a.83.83 0 0 0-.14-.63.9.9 0 0 0-.96-.35.82.82 0 0 0-.22.1l-1.43.9c-.23.15-.48.26-.75.34A2.96 2.96 0 0 1 3.92 8.4c-.42-.6-.6-1.35-.46-2.07C3.58 5.63 4 5 4.62 4.62l3.72-2.37c.23-.15.49-.27.76-.34 1.2-.3 2.46.16 3.17 1.18a2.74 2.74 0 0 1 .38 2.42l-.07.21-.2-.14a4.8 4.8 0 0 0-1.45-.73l-.14-.04.02-.14a.84.84 0 0 0-.15-.55.9.9 0 0 0-.96-.35.82.82 0 0 0-.23.1L5.75 6.24a.77.77 0 0 0-.35.52c-.04.22.01.44.14.62.21.3.6.45.96.36a.82.82 0 0 0 .22-.1l1.43-.91c.23-.15.48-.26.75-.33 1.2-.31 2.47.16 3.18 1.17.42.6.6 1.35.46 2.07a2.57 2.57 0 0 1-1.16 1.72l-3.72 2.38c-.23.15-.49.26-.76.33"
        fill="#fff" />
</svg>