<svg fill="none" xmlns="http://www.w3.org/2000/svg" viewBox="0 0 16 16" id="ts">
    <path
        d="M14.34 1H1.66c-.37 0-.66.3-.66.66v12.68c0 .37.3.66.66.66h12.68c.37 0 .66-.3.66-.66V1.66c0-.37-.3-.66-.66-.66Z"
        fill="#3178C6" />
    <path fill-rule="evenodd" clip-rule="evenodd"
        d="M9.12 11.88v1.53c.28.14.58.24.88.3a5.78 5.78 0 0 0 2.12-.02c.31-.06.6-.18.87-.35.25-.16.45-.37.59-.63.25-.53.29-1.14.1-1.7-.09-.2-.21-.4-.37-.56a2.62 2.62 0 0 0-.56-.44 6.01 6.01 0 0 0-.74-.36l-.54-.24a2.75 2.75 0 0 1-.4-.24c-.1-.07-.19-.16-.26-.26a.55.55 0 0 1-.1-.31c0-.1.04-.2.09-.29a.7.7 0 0 1 .23-.22c.11-.06.23-.11.36-.14a2.97 2.97 0 0 1 2.1.43V6.95c-.24-.1-.5-.16-.76-.2a6.21 6.21 0 0 0-1.98.05c-.3.07-.6.2-.86.37-.24.16-.44.38-.58.63-.15.29-.23.6-.22.93 0 .42.13.84.4 1.17a3 3 0 0 0 1.2.82l.58.25c.17.07.32.16.47.26.12.08.23.18.32.3a.6.6 0 0 1 .04.63.64.64 0 0 1-.22.22 1.2 1.2 0 0 1-.36.14c-.17.04-.34.06-.51.06a2.89 2.89 0 0 1-1.89-.7ZM6.55 8.06h2V6.8H2.97v1.26h1.99v5.63h1.59V8.06Z"
        fill="#fff" />
</svg>