<svg width="32" height="32" viewBox="0 0 32 32" fill="none" xmlns="http://www.w3.org/2000/svg">
<path d="M16 6C16.221 6 16.433 6.0878 16.5893 6.24408C16.7455 6.40036 16.8333 6.61232 16.8333 6.83333V10.1667C16.8333 10.3877 16.7455 10.5996 16.5893 10.7559C16.433 10.9122 16.221 11 16 11C15.779 11 15.567 10.9122 15.4107 10.7559C15.2545 10.5996 15.1667 10.3877 15.1667 10.1667V6.83333C15.1667 6.61232 15.2545 6.40036 15.4107 6.24408C15.567 6.0878 15.779 6 16 6ZM10.1075 8.92917C9.95033 8.77737 9.73983 8.69337 9.52133 8.69527C9.30283 8.69717 9.09382 8.78481 8.93932 8.93932C8.78481 9.09382 8.69717 9.30283 8.69527 9.52133C8.69337 9.73983 8.77737 9.95033 8.92917 10.1075L11.2858 12.4642C11.443 12.616 11.6535 12.7 11.872 12.6981C12.0905 12.6962 12.2995 12.6085 12.454 12.454C12.6085 12.2995 12.6962 12.0905 12.6981 11.872C12.7 11.6535 12.616 11.443 12.4642 11.2858L10.1075 8.92917ZM6.83333 15.1667C6.61232 15.1667 6.40036 15.2545 6.24408 15.4107C6.0878 15.567 6 15.779 6 16C6 16.221 6.0878 16.433 6.24408 16.5893C6.40036 16.7455 6.61232 16.8333 6.83333 16.8333H10.1667C10.3877 16.8333 10.5996 16.7455 10.7559 16.5893C10.9122 16.433 11 16.221 11 16C11 15.779 10.9122 15.567 10.7559 15.4107C10.5996 15.2545 10.3877 15.1667 10.1667 15.1667H6.83333ZM21 16C21 15.779 21.0878 15.567 21.2441 15.4107C21.4004 15.2545 21.6123 15.1667 21.8333 15.1667H25.1667C25.3877 15.1667 25.5996 15.2545 25.7559 15.4107C25.9122 15.567 26 15.779 26 16C26 16.221 25.9122 16.433 25.7559 16.5893C25.5996 16.7455 25.3877 16.8333 25.1667 16.8333H21.8333C21.6123 16.8333 21.4004 16.7455 21.2441 16.5893C21.0878 16.433 21 16.221 21 16ZM20.7142 19.5358C20.557 19.384 20.3465 19.3 20.128 19.3019C19.9095 19.3038 19.7005 19.3915 19.546 19.546C19.3915 19.7005 19.3038 19.9095 19.3019 20.128C19.3 20.3465 19.384 20.557 19.5358 20.7142L21.8925 23.0708C21.9694 23.1504 22.0613 23.2139 22.163 23.2576C22.2647 23.3013 22.374 23.3242 22.4847 23.3252C22.5953 23.3262 22.705 23.3051 22.8075 23.2632C22.9099 23.2213 23.0029 23.1594 23.0812 23.0812C23.1594 23.0029 23.2213 22.9099 23.2632 22.8075C23.3051 22.705 23.3262 22.5953 23.3252 22.4847C23.3242 22.374 23.3013 22.2647 23.2576 22.163C23.2139 22.0613 23.1504 21.9694 23.0708 21.8925L20.7142 19.5358ZM12.4642 20.7142C12.5438 20.6373 12.6072 20.5453 12.6509 20.4437C12.6946 20.342 12.7176 20.2327 12.7185 20.122C12.7195 20.0114 12.6984 19.9016 12.6565 19.7992C12.6146 19.6968 12.5527 19.6037 12.4745 19.5255C12.3963 19.4473 12.3032 19.3854 12.2008 19.3435C12.0984 19.3016 11.9886 19.2805 11.878 19.2815C11.7673 19.2824 11.658 19.3054 11.5563 19.3491C11.4547 19.3928 11.3627 19.4562 11.2858 19.5358L8.92917 21.8917C8.84957 21.9685 8.78609 22.0605 8.74242 22.1622C8.69874 22.2638 8.67575 22.3732 8.67479 22.4838C8.67383 22.5945 8.69491 22.7042 8.73682 22.8066C8.77872 22.909 8.84059 23.0021 8.91884 23.0803C8.99708 23.1586 9.09012 23.2204 9.19254 23.2624C9.29495 23.3043 9.40469 23.3253 9.51533 23.3244C9.62598 23.3234 9.73533 23.3004 9.837 23.2568C9.93867 23.2131 10.0306 23.1496 10.1075 23.07L12.4642 20.7142ZM23.0708 10.1075C23.2226 9.95033 23.3066 9.73983 23.3047 9.52133C23.3028 9.30283 23.2152 9.09382 23.0607 8.93932C22.9062 8.78481 22.6972 8.69717 22.4787 8.69527C22.2602 8.69337 22.0497 8.77737 21.8925 8.92917L19.5358 11.2858C19.4562 11.3627 19.3928 11.4547 19.3491 11.5563C19.3054 11.658 19.2824 11.7673 19.2815 11.878C19.2805 11.9886 19.3016 12.0984 19.3435 12.2008C19.3854 12.3032 19.4473 12.3963 19.5255 12.4745C19.6037 12.5527 19.6968 12.6146 19.7992 12.6565C19.9016 12.6984 20.0114 12.7195 20.122 12.7185C20.2327 12.7176 20.342 12.6946 20.4437 12.6509C20.5453 12.6072 20.6373 12.5438 20.7142 12.4642L23.0708 10.1075ZM16.8333 21.8333C16.8333 21.6123 16.7455 21.4004 16.5893 21.2441C16.433 21.0878 16.221 21 16 21C15.779 21 15.567 21.0878 15.4107 21.2441C15.2545 21.4004 15.1667 21.6123 15.1667 21.8333V25.1667C15.1667 25.3877 15.2545 25.5996 15.4107 25.7559C15.567 25.9122 15.779 26 16 26C16.221 26 16.433 25.9122 16.5893 25.7559C16.7455 25.5996 16.8333 25.3877 16.8333 25.1667V21.8333ZM16 11.8333C14.8949 11.8333 13.8351 12.2723 13.0537 13.0537C12.2723 13.8351 11.8333 14.8949 11.8333 16C11.8333 17.1051 12.2723 18.1649 13.0537 18.9463C13.8351 19.7277 14.8949 20.1667 16 20.1667C17.1051 20.1667 18.1649 19.7277 18.9463 18.9463C19.7277 18.1649 20.1667 17.1051 20.1667 16C20.1667 14.8949 19.7277 13.8351 18.9463 13.0537C18.1649 12.2723 17.1051 11.8333 16 11.8333Z" fill="#CACACA"/>
<rect x="0.5" y="0.5" width="31" height="31" rx="3.5" stroke="#B0B0B0"/>
</svg>
